<svg xmlns="http://www.w3.org/2000/svg" xmlns:svg="http://www.w3.org/2000/svg" xmlns:xlink="http://www.w3.org/1999/xlink" id="svg3103" width="765" height="990" version="1.1"><defs id="defs3105"><linearGradient id="linearGradient3956"><stop id="stop3958" offset="0" stop-color="#b3b3b3" stop-opacity="1"/><stop id="stop3960" offset="1" stop-color="#002e03" stop-opacity="1"/></linearGradient><linearGradient id="linearGradient3156"><stop id="stop3158" offset="0" stop-color="#00801f" stop-opacity="1"/><stop id="stop3160" offset="1" stop-color="#61ff25" stop-opacity="1"/></linearGradient><linearGradient id="linearGradient3162" x1="757.143" x2="452.857" y1="221.429" y2="342.857" gradientTransform="translate(0.0203017,62.321573)" gradientUnits="userSpaceOnUse" xlink:href="#linearGradient3156"/><linearGradient id="linearGradient3938" x1="59.5" x2="64.786" y1="42.143" y2="390.714" gradientTransform="translate(-1.9796983,60.321573)" gradientUnits="userSpaceOnUse" xlink:href="#linearGradient3156"/><linearGradient id="linearGradient3954" x1="357.143" x2="764.286" y1="776.429" y2="776.429" gradientTransform="translate(0.0203017,64.321573)" gradientUnits="userSpaceOnUse" xlink:href="#linearGradient3156"/><linearGradient id="linearGradient3962" x1="671.98" x2="150.551" y1="950.041" y2="778.612" gradientTransform="translate(-1.9796983,62.321573)" gradientUnits="userSpaceOnUse" xlink:href="#linearGradient3956"/><filter id="filter4514" color-interpolation-filters="sRGB"><feFlood id="feFlood4516" flood-color="#023A00" flood-opacity=".5" result="flood"/><feComposite id="feComposite4518" in="flood" in2="SourceGraphic" operator="in" result="composite1"/><feGaussianBlur id="feGaussianBlur4520" in="composite" result="blur" stdDeviation="1.5"/><feOffset id="feOffset4522" dx="2" dy="2" result="offset"/><feComposite id="feComposite4524" in="SourceGraphic" in2="offset" operator="over" result="composite2"/></filter><linearGradient id="linearGradient3977-0" x1="99.062" x2="1058.45" y1="873.871" y2="160.043" gradientTransform="matrix(1.3564544,0,0,1.3564544,-182.18083,-185.79566)" gradientUnits="userSpaceOnUse" xlink:href="#linearGradient3156-7"/><linearGradient id="linearGradient3156-7"><stop id="stop3158-1" offset="0" stop-color="#00801f" stop-opacity="1"/><stop id="stop3160-3" offset="1" stop-color="#61ff25" stop-opacity="1"/></linearGradient><linearGradient id="linearGradient4649" x1="99.062" x2="1058.45" y1="873.871" y2="160.043" gradientTransform="matrix(1.3564544,0,0,1.3564544,-182.18083,-248.15786)" gradientUnits="userSpaceOnUse" xlink:href="#linearGradient3156-7"/><filter id="filter4514-6" color-interpolation-filters="sRGB"><feFlood id="feFlood4516-4" flood-color="#023A00" flood-opacity=".5" result="flood"/><feComposite id="feComposite4518-7" in="flood" in2="SourceGraphic" operator="in" result="composite1"/><feGaussianBlur id="feGaussianBlur4520-4" result="blur" stdDeviation="1.5"/><feOffset id="feOffset4522-6" dx="2" dy="2" result="offset"/><feComposite id="feComposite4524-1" in="SourceGraphic" in2="offset" operator="over" result="composite2"/></filter><filter id="filter4729" color-interpolation-filters="sRGB"><feFlood id="feFlood4731" flood-color="#023A00" flood-opacity=".5" result="flood"/><feComposite id="feComposite4733" in="flood" in2="SourceGraphic" operator="in" result="composite1"/><feGaussianBlur id="feGaussianBlur4735" result="blur" stdDeviation="1.5"/><feOffset id="feOffset4737" dx="2" dy="2" result="offset"/><feComposite id="feComposite4739" in="SourceGraphic" in2="offset" operator="over" result="composite2"/></filter></defs><metadata id="metadata3108"/><g id="layer1" transform="translate(0,-62.362183)"><path id="path3148" fill="url(#linearGradient3938)" fill-opacity="1" stroke="none" d="m -1.9796983,61.750144 575.8875983,0 L -1.9796983,986.03586 z"/><path id="path3152" fill="url(#linearGradient3162)" fill-opacity="1" stroke="none" d="M 446.48481,626.52062 766.74479,824.84695 765.73464,62.321572 570.43869,61.224763 z"/><path id="path3154" fill="url(#linearGradient3954)" fill-opacity="1" stroke="none" d="m 445.73454,625.75014 -91.60186,432.52536 411.68859,-1.5152 1.51523,-231.84699 z"/><path id="path3150" fill="url(#linearGradient3962)" fill-opacity="1" stroke="none" d="M 570.87744,63.750144 354.15298,1064.8617 -3.5815859,1062.8414 -4.0866622,986.18886 z"/></g><g id="layer3" display="inline"><path id="path3969" fill="url(#linearGradient4649)" fill-opacity="1" stroke="none" d="M 441.90658,-340.68563 25.1528,25.74443 l 278.03365,215.37688 89.57808,-78.76134 0.27936,0.21651 2.63473,-2.31657 L 713.65598,406.57884 1038.1969,121.22672 441.90028,-340.6904 z M 1079.7145,153.38798 56.03304,1053.4583 348.47544,1279.9969 1372.1569,379.92645 1079.7145,153.38798 z M 398.42915,224.38482 -263.22745,806.1454 14.52062,1021.3009 676.17718,439.54045 398.42915,224.38482 z M -12.21143,58.59686 -581.77502,559.38473 -303.74131,774.7616 265.82225,273.97372 -12.21143,58.59686 z" display="inline"/></g><g id="layer4"><g id="g4816" transform="translate(2.5714286,-13.142857)"><g id="g4708" filter="url(#filter4514-6)" transform="translate(-4.0479654e-7,-62.362185)"><path id="path4160" fill="#fff" fill-opacity="1" stroke="none" d="m 213.2162,855.22103 0,47.97382 26.8681,0 0,-10.31161 0.027,0 0,-0.30329 30.7281,0 0,-37.35892 -57.6238,0 z m 61.6353,0 0,117.83915 28.2605,0 0,-117.83915 -28.2605,0 z m -30.8521,41.67381 0,76.16534 26.8405,0 0,-76.16534 -26.84049,0 z m -30.7832,10.60112 0,65.56422 26.8681,0 0,-65.56422 -26.8681,0 z" display="inline" filter="url(#filter4298)"/><text id="text4162" x="332.497" y="949.072" fill="#fff" fill-opacity="1" stroke="none" display="inline" filter="url(#filter4298)" font-family="Comfortaa" font-size="98.382" font-stretch="normal" font-style="normal" font-variant="normal" font-weight="normal" letter-spacing="0" word-spacing="0" xml:space="preserve" style="line-height:125%;-inkscape-font-specification:Comfortaa"><tspan id="tspan4164" x="332.497" y="949.072">manjaro</tspan></text></g><text id="text4166-3" x="415.062" y="957.192" fill="#fff" fill-opacity="1" stroke="none" filter="url(#filter4514-6)" font-family="Comfortaa" font-size="40" font-stretch="normal" font-style="normal" font-variant="normal" font-weight="normal" letter-spacing="0" word-spacing="0" xml:space="preserve" style="line-height:125%;-inkscape-font-specification:Comfortaa"><tspan id="tspan4168-7" x="415.062" y="957.192">user guide 0.8.10</tspan></text></g></g><g id="layer2" display="inline"><rect id="rect3864" width="654.362" height="1276.135" x="-657.408" y="-112.38" fill="#fff" fill-opacity="1" stroke="#000" stroke-width="1.341" display="inline"/><rect id="rect3866" width="694.728" height="1276.095" x="766.741" y="-93.429" fill="#fff" fill-opacity="1" stroke="#000" stroke-width="1.382" display="inline"/><rect id="rect3868" width="363.78" height="1276.476" x="-364.529" y="-1022.134" fill="#fff" fill-opacity="1" stroke="#000" display="inline" transform="matrix(0,1,-1,0,0,0)"/><rect id="rect3870" width="363.78" height="1276.476" x="994.841" y="-1008.707" fill="#fff" fill-opacity="1" stroke="#000" display="inline" transform="matrix(0,1,-1,0,0,0)"/></g></svg>